<svg xmlns="http://www.w3.org/2000/svg" xmlns:xlink="http://www.w3.org/1999/xlink" version="1.1" id="Layer_1" x="0px" y="0px" width="100px" height="100px" viewBox="0 0 100 100" enable-background="new 0 0 100 100" xml:space="preserve">
<circle fill="#cd615e" r="145" cx="200" cy="145"/>
<circle fill="#eab976" r="135" cx="200" cy="145" opacity="1"/>
<circle fill="#e8ca74" r="125" cx="200" cy="145" opacity="0.8"/>
<circle fill="#ead174" r="115" cx="200" cy="145" opacity="1"/>
<circle fill="white" r="110" cx="200" cy="145" opacity="0.8"/>
<g id="layer1">
<path d="m330,13 c 2.828,-0.808 8.984,-3.058 11.851,-3.058 v -0.765 l 3.819,-0.408 0.004,-0.739 c 3.614,0 10.961,-4.099 12.233,-4.206 l -3.751,2.063 -0.071,0.614 h 1.146 c -2.506,1.67 -3.991,0.481 -4.205,3.058 l -6.118,2.294 v 0.765 c -3.046,0 -16.518,7.263 -17.967,7.263 -1.897,2.099 -2.619,1.221 -4.587,2.293 -3.215,1.753 0.09,0.486 -3.059,1.147 -0.944,0.198 -4.321,2.293 -5.352,2.293 -0.635,1.567 -0.218,1.009 -3.348,2.473 -0.602,1.724 -4.985,2.197 -6.21,4.027 -2.493,0 -1.246,0.068 -4.196,1.201 l -0.371,1.101 c -3.884,-0.02 -1.134,1.568 -4.99,1.521 -0.984,1.474 -0.318,1.028 -2.677,1.656 l -0.785,1.391 -1.91,0.291 -0.153,-1.084 -1.527,1.782 -0.385,-1.399 -2.053,2.889 c -3.012,0.19 -3.066,-1.023 -5.979,3.8 l 1.057,2.471 1.032,0.056 v 0.764 c 7.7,2.265 8.015,2.192 16.018,3.672 -1.628,1.459 -0.739,1.099 -3.784,1.298 l 1.137,0.437 0.011,0.71 h -0.765 c -1.189,1.776 -4.588,2.02 -4.588,1.147 l -2.281,-0.467 1.702,2.225 c -3.503,-0.62 -1.88,0.984 -4.772,-1.758 l -1.147,-0.382 c 1.779,3.557 1.529,1.694 1.529,4.205 -3.418,1.769 -1.064,-0.043 -4.178,1.218 -3.331,-1.789 -4.606,-0.327 -6.145,-0.836 l -1.1,-0.819 c -2.987,0.056 -10.884,-2.023 -11.516,-3.768 h -1.911 v -0.765 l 3.058,-2.676 c -1.645,-1.097 -6.484,-7.08 -7.646,-6.499 1.004,0.951 1.928,1.999 0,1.784 v -1.02 c -1.066,0 -1.356,0.664 -2.274,1.204 l -0.019,-1.969 -0.433,1.906 -0.714,0.005 v -1.147 h -1.147 v -0.765 c -1.357,-0.104 -2.867,-0.32 -4.211,-0.222 l 0.007,0.604 c -5.218,-0.651 -3.284,-0.948 -4.189,-1.175 -2.052,-0.517 -7.501,2.051 -10.721,0.028 -1.566,-0.983 -19.57,-0.304 -22.556,0 -1.775,0.182 -11.135,1.823 -13.77,2.241 l 0.236,0.741 -4.817,0.056 0,-1.126 10.702,-1.924 -1.52,-0.422 3.433,-0.382 0.454,-1.066 0.369,0.718 4.459,-1.359 0.071,-0.533 3.813,-0.454 c 2.495,-1.582 10.176,-4.376 13.016,-3.391 l 0.68,-0.82 c 6.031,-0.554 10.425,0.078 17.28,0.076 11.505,-0.003 5.749,4.246 14.528,-0.764 0.301,-0.262 2.676,-1.637 2.676,-0.382 1.914,1.276 1.002,0.619 4.999,0.288 10.683,-0.886 10.473,-4.943 16.097,-7.482 4.803,-2.168 8.338,-5.738 15.171,-7.767 14.838,-4.407 9.769,-3.528 26.813,-6.83 1.171,-0.227 5.627,-1.147 6.497,-1.147 l 0,0 z", id="path3231", style="fill-rule:evenodd;stroke:#000000;stroke-width:0.117;stroke-miterlimit:2.61310005"}
</g>
</svg>
