<svg xmlns="http://www.w3.org/2000/svg" xmlns:xlink="http://www.w3.org/1999/xlink" version="1.1" x="0px" y="0px" width="100px" height="100px" viewBox="0 0 100 100" enable-background="new 0 0 100 100" xml:space="preserve">
<g id="Captions">
</g>
<g id="Your_Icon">
	<g>
		<path d="M0,16.251v67.498h100V16.251H0z M50,74.583L8.333,49.584l41.667-25l41.666,25L50,74.583z"/>
		<path d="M34.029,46.64c-0.174,0.956-0.279,1.938-0.279,2.943c0,8.976,7.276,16.252,16.25,16.252    c7.178,0,13.257-4.66,15.408-11.115C57.313,46.366,45.187,43.227,34.029,46.64z"/>
		<path d="M34.855,43.727c11.1-3.374,23.152-0.263,31.236,8.01c0.094-0.707,0.158-1.422,0.158-2.153    c0-8.975-7.275-16.25-16.25-16.25C43.093,33.333,37.207,37.649,34.855,43.727z"/>
	</g>
</g>
</svg>